<?xml version="1.0" encoding="UTF-8"?>
<svg id="Layer_2" data-name="Layer 2" xmlns="http://www.w3.org/2000/svg" viewBox="0 0 395.44 218.62">
  <defs>
    <style>
      .cls-1 {
        letter-spacing: .01em;
      }

      .cls-2 {
        letter-spacing: 0em;
      }

      .cls-3 {
        letter-spacing: .01em;
      }

      .cls-4 {
        letter-spacing: 0em;
      }

      .cls-5 {
        fill: #050505;
        font-family: AdobeCleanUX-BoldIt, 'Adobe Clean UX';
        font-size: 42px;
        font-style: italic;
        font-weight: 700;
      }

      .cls-6 {
        fill: #030303;
      }

      .cls-6, .cls-7 {
        stroke-width: 0px;
      }

      .cls-8 {
        letter-spacing: 0em;
      }

      .cls-9 {
        letter-spacing: .01em;
      }

      .cls-7 {
        fill: #0a0a0a;
      }

      .cls-10 {
        letter-spacing: .01em;
      }
    </style>
  </defs>
  <g id="Layer_1-2" data-name="Layer 1">
    <g id="o0YGcF.tif">
      <g>
        <path class="cls-7" d="M180.78,0c2.37,3.2,4.62,6.07,6.66,9.08,1.06,1.56,2.37,2.15,4.14,2.28,17.77,1.23,29.95,10.71,37.83,26.14,5.75,11.27,7.03,23.38,6.11,35.89-.87,11.77-3.7,23.06-7.46,34.18-.26.77-.44,1.57-.74,2.7,1.53.15,2.87.28,4.34.42v4.92h-66.4v-5.1c1.5,0,2.89-.04,4.28,0,1.78.06,2.54-.66,2.52-2.51-.08-5.33-.12-10.67.04-16,.04-1.37.53-3.01,1.39-4.04,12.36-14.8,24.83-29.52,37.42-44.44,2.49,4.2,3.7,8.67,4.3,13.23,2.03,15.54.2,30.64-5.57,45.26-.72,1.83-1.64,2.49-3.47,2.29-.9-.1-1.82-.02-3.2-.02,7.06-16.13,9.5-32.57,6.28-50.42-1.71,1.9-3.04,3.31-4.29,4.78-8.73,10.36-17.47,20.72-26.11,31.16-.87,1.05-1.44,2.65-1.49,4.01-.18,4.74,0,9.5-.11,14.25-.04,1.81.45,2.5,2.36,2.49,13.25-.07,26.5-.05,39.75,0,1.48,0,2.24-.5,2.74-1.9,5.22-14.39,8.97-29.08,8.44-44.53-.5-14.46-4.72-27.54-15.73-37.56-7.44-6.77-16.14-10.69-26.53-9.86-.8.06-1.8-.52-2.47-1.08-.74-.62-1.2-1.58-1.8-2.38-.59-.78-1.22-1.53-2.17-2.72-.67,1.51-1.19,2.67-1.7,3.82-5.55,12.42-11.1,24.85-16.63,37.28-.98,2.2-1.72,4.51-2.88,6.61-.92,1.67-.51,2.74.7,3.92,1.6,1.57,3.1,3.23,4.89,5.11,2.76-3.29,5.37-6.3,7.84-9.4,1.03-1.3,2.06-1.75,3.8-1.63,5.6.36,10.5-1.29,14.08-5.91,2.91-3.75,2.55-8.2-.89-11.69-.86-.88-1.66-1.83-2.63-2.9.76-1.13,1.62-2.41,2.47-3.67,7.7,3.83,12.23,14.55,3.82,23.25-3.54,3.66-7.95,5.72-13.06,6.03-2.63.16-4.67.98-6.35,3.24-2.62,3.52-5.62,6.77-8.47,10.14-3.24-3.14-6.41-6.16-9.52-9.24-3.98-3.93-3.98-3.95-1.69-9.1,8.14-18.35,16.29-36.69,24.44-55.04.13-.3.31-.58.71-1.32Z"/>
        <path class="cls-6" d="M241.14,122.02q.5,5.27-4.24,5.27c-26.23,0-52.46,0-78.69-.03-.89,0-2.41-.27-2.54-.73-.34-1.22-.28-2.65.05-3.89.11-.4,1.57-.59,2.41-.6,9.33-.04,18.65-.03,27.98-.03,17.24,0,34.47,0,51.71,0h3.32Z"/>
      </g>
    </g>
    <text class="cls-5" transform="translate(22.96 180.05)"><tspan class="cls-1" x="0" y="0">B</tspan><tspan class="cls-4" x="24.4" y="0">A</tspan><tspan class="cls-3" x="49.39" y="0">LK</tspan><tspan class="cls-4" x="93.91" y="0">AN</tspan><tspan class="cls-2" x="146.45" y="0">D</tspan><tspan class="cls-4" x="173.08" y="0">AD </tspan><tspan class="cls-8" x="235.4" y="0">C</tspan><tspan class="cls-4" x="258.38" y="0">H</tspan><tspan class="cls-9" x="285.8" y="0">E</tspan><tspan class="cls-10" x="308.11" y="0">S</tspan><tspan class="cls-4" x="329.11" y="0">S</tspan></text>
  </g>
</svg>